<svg id="visual" viewBox="0 0 900 600" width="900" height="600" xmlns="http://www.w3.org/2000/svg" xmlns:xlink="http://www.w3.org/1999/xlink" version="1.1"><rect width="900" height="600" fill="#ddd7c4"></rect><g><g transform="translate(304 405)"><path d="M0 -51.4L51.4 0L0 51.4L-51.4 0Z" fill="none" stroke="#000000" stroke-width="2"></path></g><g transform="translate(755 187)"><path d="M0 -43L43 0L0 43L-43 0Z" fill="none" stroke="#000000" stroke-width="2"></path></g><g transform="translate(760 322)"><path d="M0 -17L17 0L0 17L-17 0Z" fill="none" stroke="#000000" stroke-width="2"></path></g><g transform="translate(707 572)"><path d="M0 -47L47 0L0 47L-47 0Z" stroke="#000000" fill="none" stroke-width="2"></path></g><g transform="translate(11 452)"><path d="M0 -42L42 0L0 42L-42 0Z" stroke="#000000" fill="none" stroke-width="2"></path></g><g transform="translate(594 422)"><path d="M0 -8L8 0L0 8L-8 0Z" stroke="#000000" fill="none" stroke-width="2"></path></g><g transform="translate(141 553)"><path d="M0 -41L41 0L0 41L-41 0Z" stroke="#000000" fill="none" stroke-width="2"></path></g><g transform="translate(874 242)"><path d="M0 -14L14 0L0 14L-14 0Z" stroke="#000000" fill="none" stroke-width="2"></path></g><g transform="translate(860 130)"><path d="M0 -50L50 0L0 50L-50 0Z" stroke="#000000" fill="none" stroke-width="2"></path></g><g transform="translate(168 378)"><path d="M0 -25L25 0L0 25L-25 0Z" stroke="#000000" fill="none" stroke-width="2"></path></g><g transform="translate(95 190)"><path d="M0 -19L19 0L0 19L-19 0Z" stroke="#000000" fill="none" stroke-width="2"></path></g><g transform="translate(463 234)"><path d="M0 -17L17 0L0 17L-17 0Z" stroke="#000000" fill="none" stroke-width="2"></path></g><g transform="translate(593 291)"><path d="M0 -24L24 0L0 24L-24 0Z" stroke="#000000" fill="none" stroke-width="2"></path></g><g transform="translate(510 356)"><path d="M0 -48L48 0L0 48L-48 0Z" stroke="#000000" fill="none" stroke-width="2"></path></g><g transform="translate(343 522)"><path d="M0 -50L50 0L0 50L-50 0Z" stroke="#000000" fill="none" stroke-width="2"></path></g><g transform="translate(522 104)"><path d="M0 -29L29 0L0 29L-29 0Z" stroke="#000000" fill="none" stroke-width="2"></path></g><g transform="translate(624 59)"><path d="M0 -30L30 0L0 30L-30 0Z" stroke="#000000" fill="none" stroke-width="2"></path></g><g transform="translate(255 211)"><path d="M0 -24L24 0L0 24L-24 0Z" stroke="#000000" fill="none" stroke-width="2"></path></g><g transform="translate(39 11)"><path d="M0 -14L14 0L0 14L-14 0Z" stroke="#000000" fill="none" stroke-width="2"></path></g><g transform="translate(436 587)"><path d="M0 -46L46 0L0 46L-46 0Z" stroke="#000000" fill="none" stroke-width="2"></path></g><g transform="translate(756 6)"><path d="M0 -19L19 0L0 19L-19 0Z" stroke="#000000" fill="none" stroke-width="2"></path></g><g transform="translate(188 128)"><path d="M0 -41L41 0L0 41L-41 0Z" stroke="#000000" fill="none" stroke-width="2"></path></g><g transform="translate(795 466)"><path d="M0 -50L50 0L0 50L-50 0Z" stroke="#000000" fill="none" stroke-width="2"></path></g><g transform="translate(332 4)"><path d="M0 -38L38 0L0 38L-38 0Z" stroke="#000000" fill="none" stroke-width="2"></path></g><g transform="translate(408 92)"><path d="M0 -22L22 0L0 22L-22 0Z" stroke="#000000" fill="none" stroke-width="2"></path></g><g transform="translate(410 396)"><path d="M0 -21L21 0L0 21L-21 0Z" stroke="#000000" fill="none" stroke-width="2"></path></g><g transform="translate(882 397)"><path d="M0 -14L14 0L0 14L-14 0Z" stroke="#000000" fill="none" stroke-width="2"></path></g><g transform="translate(331 288)"><path d="M0 -6L6 0L0 6L-6 0Z" stroke="#000000" fill="none" stroke-width="2"></path></g><g transform="translate(50 307)"><path d="M0 -13L13 0L0 13L-13 0Z" stroke="#000000" fill="none" stroke-width="2"></path></g><g transform="translate(206 2)"><path d="M0 -44L44 0L0 44L-44 0Z" stroke="#000000" fill="none" stroke-width="2"></path></g><g transform="translate(14 574)"><path d="M0 -38L38 0L0 38L-38 0Z" stroke="#000000" fill="none" stroke-width="2"></path></g><g transform="translate(876 16)"><path d="M0 -18L18 0L0 18L-18 0Z" stroke="#000000" fill="none" stroke-width="2"></path></g><g transform="translate(494 499)"><path d="M0 -17L17 0L0 17L-17 0Z" stroke="#000000" fill="none" stroke-width="2"></path></g><g transform="translate(893 573)"><path d="M0 -24L24 0L0 24L-24 0Z" stroke="#000000" fill="none" stroke-width="2"></path></g><g transform="translate(557 583)"><path d="M0 -39L39 0L0 39L-39 0Z" stroke="#000000" fill="none" stroke-width="2"></path></g><g transform="translate(241 492)"><path d="M0 -12L12 0L0 12L-12 0Z" stroke="#000000" fill="none" stroke-width="2"></path></g><g transform="translate(259 599)"><path d="M0 -24L24 0L0 24L-24 0Z" stroke="#000000" fill="none" stroke-width="2"></path></g><g transform="translate(620 184)"><path d="M0 -32L32 0L0 32L-32 0Z" stroke="#000000" fill="none" stroke-width="2"></path></g><g transform="translate(293 106)"><path d="M0 -19L19 0L0 19L-19 0Z" stroke="#000000" fill="none" stroke-width="2"></path></g><g transform="translate(155 275)"><path d="M0 -26L26 0L0 26L-26 0Z" stroke="#000000" fill="none" stroke-width="2"></path></g><g transform="translate(2 139)"><path d="M0 -41L41 0L0 41L-41 0Z" stroke="#000000" fill="none" stroke-width="2"></path></g><g transform="translate(696 436)"><path d="M0 -16L16 0L0 16L-16 0Z" stroke="#000000" fill="none" stroke-width="2"></path></g><g transform="translate(360 186)"><path d="M0 -9L9 0L0 9L-9 0Z" stroke="#000000" fill="none" stroke-width="2"></path></g><g transform="translate(491 5)"><path d="M0 -35L35 0L0 35L-35 0Z" stroke="#000000" fill="none" stroke-width="2"></path></g></g></svg>